<?xml version="1.0" encoding="utf-8"?>
<!-- Generator: Adobe Illustrator 16.0.0, SVG Export Plug-In . SVG Version: 6.00 Build 0)  -->
<!DOCTYPE svg PUBLIC "-//W3C//DTD SVG 1.1//EN" "http://www.w3.org/Graphics/SVG/1.1/DTD/svg11.dtd">
<svg version="1.1" id="Layer_1" xmlns="http://www.w3.org/2000/svg" xmlns:xlink="http://www.w3.org/1999/xlink" x="0px" y="0px"
	 width="50px" height="50px" viewBox="0 0 50 50" enable-background="new 0 0 50 50" xml:space="preserve">
<path d="M45.694,21.194C45.694,9.764,36.43,0.5,25,0.5S4.306,9.764,4.306,21.194c0,8.621,5.272,16.005,12.764,19.115
	c-1.882,2.244-3.762,4.486-5.645,6.73c-0.429,0.5-0.458,1.602,0.243,2.145c0.7,0.551,1.757,0.252,2.139-0.289
	c1.878-2.592,3.753-5.189,5.63-7.783c1.774,0.494,3.633,0.777,5.561,0.777c1.85,0,3.64-0.266,5.349-0.723
	c1.617,2.563,3.238,5.121,4.862,7.684c0.34,0.555,1.365,0.91,2.088,0.414c0.728-0.492,0.759-1.58,0.368-2.096
	c-1.663-2.252-3.332-4.508-4.995-6.76C40.3,37.354,45.694,29.91,45.694,21.194z M25,37.824c-1.018,0-2.01-0.105-2.977-0.281
	c1.07-1.48,2.146-2.965,3.215-4.447c0.939,1.48,1.874,2.959,2.81,4.436C27.058,37.717,26.041,37.824,25,37.824z M30.155,37
	c-1.305-1.764-2.609-3.527-3.91-5.295c0.724-1,1.446-1.998,2.17-3c1.644,0.746,3.646,0,4.827-1.787c1.239-1.872,0.005,0,0.005,0.002
	c0.01-0.014,5.822-8.824,5.63-8.97c-0.186-0.15-3.804,4.771-6.387,8.081l-0.548-0.43c2.362-3.481,5.941-8.426,5.757-8.575
	c-0.189-0.146-3.959,4.655-6.652,7.878l-0.545-0.428c2.463-3.398,6.202-8.228,6.014-8.374c-0.188-0.15-4.115,4.528-6.917,7.67
	l-0.547-0.43c2.575-3.314,6.463-8.02,6.278-8.169c-0.191-0.15-5.808,6.021-7.319,7.651c-1.325,1.424-1.664,3.68-0.562,5.12
	c-0.703,0.84-1.41,1.678-2.113,2.518c-0.781-1.057-1.563-2.111-2.343-3.17c1.975-1.888,1.984-5.234-0.054-7.626
	c-2.14-2.565-6.331-5.22-8.51-3.818c-2.093,1.526-1.14,6.396,0.479,9.316c1.498,2.764,4.617,3.965,7.094,2.805
	c0.778,1.227,1.554,2.455,2.333,3.684c-1.492,1.783-2.984,3.561-4.478,5.342C13.197,34.826,8.38,28.574,8.38,21.191
	c0-9.183,7.444-16.631,16.632-16.631c9.188,0,16.625,7.447,16.625,16.631C41.63,28.576,36.816,34.828,30.155,37z"/>
</svg>
